<svg xmlns="http://www.w3.org/2000/svg" viewBox="0 0 789.81 253.22"><defs><style>.cls-1{fill:#1d1d1b;}.cls-2{fill:#010101;}</style></defs><title>Fichier 1</title><g id="Calque_2" data-name="Calque 2"><g id="Calque_1-2" data-name="Calque 1"><path class="cls-1" d="M725.54,137.46q-18.63,2.28-37.28,4.48-48,5.7-96,11.19-66.69,7.62-133.42,14.81-73.37,7.88-146.81,15c-46.51,4.49-93.05,8.71-139.64,12.24-36.36,2.75-72.08,5.22-106.87,6-6.59.15-13.18.23-19.76.18-2.84,0-5.68-.06-8.52-.14l-3.7-.13c-.91,0,1.93.11-.16,0L31.34,201c-2.16-.13-4.33-.28-6.48-.5-.91-.08-1.81-.2-2.71-.29-1.36-.14-.22,0,.26,0-.48-.07-1-.13-1.45-.21l-2.16-.39-.88-.19c-1.64-.31,1.21.38.1,0L16.43,199c-1.66-.48.87.36-.36-.13s-1.5-.64-1.38-1.69c.08-.63-.26-.19.62-1.14.27-.29.56-.56.84-.84.91-.95-.17,0,.54-.45a48.12,48.12,0,0,1,7.61-4,10.71,10.71,0,0,1,1.55-.64c1-.4,2-.8,3-1.18,2.16-.81,4.33-1.57,6.51-2.3,27.69-9.34,54.38-15.07,83-21.29,41.83-9.12,83.92-17.08,126.08-24.57Q318,127.66,391.93,116.62c49.09-7.36,98.28-14.13,147.57-20,42.77-5.12,85.63-9.69,128.6-12.69,17.78-1.23,32-2,48.93-2.38,6.88-.14,13.77-.18,20.65,0,1.46,0,2.93.06,4.39.11l2.35.08a4.75,4.75,0,0,1,.75,0c2.69.14,5.37.3,8.06.53q3.56.3,7.1.75c.81.1-1.78-.28.08,0l1.47.23c1,.17,2,.35,3,.56.84.17,1.67.36,2.5.55-2.27-.53.6.19,1.22.38s1.31.45,2,.68.49.23-.18-.09c.35.17.74.31,1.08.51s.94.52,1.41.8c1.1.68-.3-.5.56.44.44.48,1.61,2.14,1.24,1.51.29.5.33,2.32.41,1.21,0,.62.36-.31.19-.09s-1.58.71-.49.3-.47.17-.79.27l-1.76.53c-.36.11-.72.19-1.08.29-.58.16,1.7-.4.22-.06-.85.19-1.69.39-2.54.57-4.49,1-9,1.73-13.58,2.45-2.9.46-5.82.9-8.73,1.32L742,96c-1.71.23,1-.14,0,0l-1.34.18-2.75.36q-11.64,1.53-23.32,2.86c-42,4.86-84.12,8.66-126.26,12.18q-77.17,6.44-154.5,11.18c-48.21,2.95-96,5.46-144.13,6.85-19.55.57-39.12,1-58.68.9-7.93,0-15.86-.12-23.78-.36l-5-.18-1.08,0c-1.79-.07,1.29.06.14,0l-2.83-.13c-3-.16-6-.34-9-.58q-3.69-.28-7.38-.7c-.72-.08-4.35-.59-1.79-.21-1-.14-1.94-.28-2.9-.45s-1.73-.32-2.6-.49c-.43-.08-.86-.19-1.3-.29-.9-.19,1.59.47.32.08l-2-.61c-1.69-.51.81.45-.61-.23a16.76,16.76,0,0,0-10.26-.87c-1.23.26-5.75,1.84-2.69,3.31,8,3.86,17.85,4.38,26.56,5.08,14.79,1.21,29.67,1.45,44.51,1.52,43.73.19,87.48-1.6,131.16-3.68,52.31-2.5,104.58-5.79,156.81-9.58,49.08-3.57,98.14-7.56,147.12-12.32,33.57-3.26,67.3-6.45,100.59-11.9,7.21-1.18,16-1.86,22.59-5.36,4.83-2.59.93-6.88-2.43-8.81-7.14-4.1-16.42-5-24.42-5.83a326.85,326.85,0,0,0-38.2-1.29c-37.38.44-74.74,3.56-111.93,7.14-47.57,4.59-95,10.38-142.4,16.77q-77.06,10.38-153.82,22.88c-47.8,7.77-95.51,16.09-143,25.33-37,7.19-74,14.8-110.5,24.12-12.11,3.09-24.2,6.34-36,10.34-7,2.37-14.7,4.78-20.88,9-14,9.63,13.92,12.73,19.43,13.18,28.13,2.27,56.75.45,84.87-1,42.19-2.21,84.32-5.58,126.41-9.22,49.51-4.29,99-9.1,148.39-14.15q73.17-7.47,146.25-15.63,60-6.68,120-13.68,35.44-4.14,70.86-8.4l9.42-1.14c1.41-.18,6.33-.58,5.24-3-1-2.15-7.58-1.89-9.23-1.69Z"/><path class="cls-2" d="M248.31,238.48c10.93-3.47,22.26-8.45,31.22-15.69,4.78-3.86,9.94-9.33,9.18-16-.73-6.4-6.26-11.76-12.34-13.22-16.36-3.93-32.44,1.65-45,12.1-9.35,7.8-22.54,21.66-20.61,35.14,2,13.73,20.76,12.94,30.82,11.87,12.57-1.33,24.51-6.69,35.63-12.43,37.07-19.12,70.44-46.41,100.29-75.29,35-33.86,66.94-72.79,87.68-117.13q3.74-8,6.91-16.22c-.19.5-13.79-2.66-15,0-14,30.8-28,61.56-41.61,92.53-7.33,16.7-15,33.48-20.63,50.84-1.44,4.4-3,9-3.15,13.72,0,.87,14.07,1.73,15,0,12.7-23.64,26.09-46.75,41.81-68.55C474.1,84.74,504.89,52,542.37,29.1c22.85-14,48-23.82,74.53-27.8L603.19.64c-30.37,18.3-58.07,42.52-83.68,66.86C502.9,83.29,487,100,473,118.06c-12.35,15.84-23.87,33.09-30.61,52.14-5.25,14.87-7.32,31.66-.29,46.32a52.33,52.33,0,0,0,15.29,18.37c7.84,6.15,16.36,8.65,26.24,9,20.89.82,38.38-6.7,54.17-20.06,13.29-11.24,26-25.68,32.67-42,1.75-4.24,4.09-10.49,1.81-15-3.06-6-14-4.62-19.21-4.27-13.6.92-28.2,4.75-39.27,13-5.17,3.86-13,12.47-3.73,16.58,5.8,2.58,13.16,2.33,19.34,2.31.71,0,7.5.13,7.5-.86s-7.23-.86-7.5-.86c-3.13,0-7.67-1.34-8.64-4.73-.9-3.12,1.48-6.3,3.46-8.43,8.62-9.28,22.31-13.12,34.3-15.29,4.53-.82-4.59.41-4.92-.39,0,.06.66.15.74.23.65.62,1.57.81,2.21,1.56a8.13,8.13,0,0,1,1.54,5c.17,5.44-2.36,11-4.77,15.74-7.61,15-19.45,28.46-32.52,38.95A90.1,90.1,0,0,1,498.51,239c-3.68,1.49-7.38,2.17-11.18,3.19-2.12.56,1.5.49.86.07-1.29-.86-4.1-.91-5.66-1.5-13.87-5.2-25.2-18.89-28.66-33.15-3.52-14.55.14-29.84,5.77-43.36,15-36.09,43.64-66.62,71.38-93.4C555.83,46.88,582.57,24,611.45,5c2-1.34,4.11-2.66,6.21-3.92.92-.56-4.11-1-4.34-1A46.59,46.59,0,0,0,604,.44c-46.86,7-88.24,31.8-122.25,64-28.53,27-52.26,59-72.35,92.64-6.18,10.36-11.89,21-17.6,31.6h15c.41-10.65,5.84-21.74,9.72-31.42,9.19-22.92,19.44-45.43,29.56-67.95q13-28.89,26.11-57.72h-15c-16,41.31-42.59,78-72.34,110.5C356.53,173,324.59,201,289.57,224c-12.82,8.41-26.19,16.33-40.4,22.17A81.12,81.12,0,0,1,234.06,251a20.6,20.6,0,0,0-2.53.41c-1.23.39.64-.05.88-.05,1,0,2.08.06,3.11,0,1.3,0,1,.33-.06-.12a36.41,36.41,0,0,1-3.34-1.45c-11.59-6.5-5-21.29.7-29.49,7.65-11,19.58-21.88,32.82-25.52.69-.19,1.41-.29,2.1-.48,4.08-1.16-8.14-1.6-4.94-.06a37.3,37.3,0,0,1,3.88,1.65A16.39,16.39,0,0,1,273,204c2.42,6.71-1.78,12.87-6.63,17.19-9,8-21.21,13.22-32.56,16.83-.87.27,4.76,1,5.24,1.05,2.94.11,6.36.31,9.22-.6Z"/></g></g></svg>