<svg xmlns="http://www.w3.org/2000/svg" viewBox="0 0 746.7 259.52"><defs><style>.cls-1{fill:#1d1d1b;}</style></defs><title>Fichier 2</title><g id="Calque_2" data-name="Calque 2"><g id="Calque_1-2" data-name="Calque 1"><path class="cls-1" d="M305.51,180c17.93-.64,26.42-33.11,9.8-41.24-14-6.86-31.61,5.08-42.73,12.61-16.39,11.11-32,25-42.91,41.61-9.42,14.36-15.8,34.16-5.81,50,15,23.73,49.09,17.52,70.84,8.84,33.08-13.22,60.57-39.34,78.15-70,24-42,28.33-92.5,18.92-139.38q-2.26-11.25-5.35-22.28l-5.14,10.26C419,64.44,474.47,45.14,513,22.5c4.09-2.4,8.16-4.88,12-7.64L523,.4a631.3,631.3,0,0,0-57.63,51.4C450,67.18,435.21,83.36,422.2,100.86c-12.08,16.27-23.29,34.05-29.08,53.63-5,16.85-5.61,36.31,3.81,51.79A57.54,57.54,0,0,0,416,225.06c8.85,5.53,19.52,10.51,30.14,10.58,21.29.13,38.13-17.21,48.19-34.27,8.95-15.17,17.32-38.34,8.93-55.46-3.23-6.59-9.54-9.8-16.77-9.06-6.67.68-13.26,3.65-19.21,6.51-6.79,3.27-13.46,7.36-18.65,12.9-14,14.88-10.51,41.78,9.14,50.07,2.66,1.13,5.79,2,8.67,1.34,5.42-1.25,4.5-16,0-15-5.4,1.26-11.19-2.64-14.72-6.47a16.42,16.42,0,0,1-4.35-7.67c.3,1.47.13-2,0-.15.08-1.48,0-.34-.06,0a10.89,10.89,0,0,1,.19-1.38c-.36,1.27.48-1.42.29-.93a18.15,18.15,0,0,1,1.63-3.16c3.44-5.34,9.07-9.17,14.48-12.25,6-3.41,12.75-6.76,19.53-8.26,2.92-.65,6.36-1,9.22-.15A10.68,10.68,0,0,1,496,154c.11.09,1.76,2.13,1.62,1.93.23.33.94,2.08.43.72.24.65.42,1.32.6,2-.4-1.54.05.38.12.91.27,2,.1-.42.11,1.24a39,39,0,0,1-1,8.59,77.24,77.24,0,0,1-10.29,23.74c-9.4,14.7-24.91,28.66-43.48,27.5-9.48-.6-18.94-5.36-26.83-10.4-6.13-3.93-12.08-9.3-15.6-15.31a30.94,30.94,0,0,1-3.69-8.78,15.52,15.52,0,0,1-.71-3.66,16.46,16.46,0,0,1-.3-4.27c0-.86,0-1.71,0-2.56,0-1.22-.14.81.08-1.26.21-1.88.46-3.74.78-5.61a36.12,36.12,0,0,1,1-4.27q.78-2.94,1.76-5.83c5.52-16.37,15.78-32.16,26.36-46.22a441.08,441.08,0,0,1,39.39-44.91A688,688,0,0,1,524,15.65l1-.79c2.65-2.06,3.07-6.08,2.62-9.22-.23-1.55-1.9-7.17-4.61-5.24a203.55,203.55,0,0,1-32,18.13c-21,9.78-44.39,17.17-67.78,15.08a65.23,65.23,0,0,1-38.2-16.22c-5.17-4.67-5.86,7.66-5.13,10.26,11.78,41.92,13.29,87.29-4.49,127.79-13.28,30.26-36,56.29-64.56,72.95-18.81,11-45.3,21.44-67.23,13.94a30.52,30.52,0,0,1-13.12-8.43,17,17,0,0,1-3.91-7c0-.22-.27-2.06-.27-2.22a11.85,11.85,0,0,1,.41-3.92c2.84-14.09,16.12-28.26,26.91-38.34,11.84-11.06,25.6-21.36,40.6-27.73,5.48-2.32,11.43-4.06,17.36-2.2a10.16,10.16,0,0,1,4,2.23c.43.41.64,1.12,1,1.49-.25-.24-.16-1.68-.17-.81a4.72,4.72,0,0,1-.48,1.68,14.39,14.39,0,0,1-2.7,4.06,11.2,11.2,0,0,1-7.8,3.81c-5.27.19-5.16,15.19,0,15Z"/><path class="cls-1" d="M353.31,248.9c-19.69.69-39.4,1.08-59.1,1.39h-.85l-3.13,0-7.25.09q-7.16.09-14.32.15-15.83.12-31.65.11-16.53,0-33.06-.2l-8.3-.11-1.9,0-4.89-.09q-8.33-.17-16.65-.38c-11.24-.3-22.49-.68-33.73-1.2l-2-.09-3.74-.19q-4.15-.21-8.31-.45c-5.24-.31-10.47-.64-15.7-1-16.47-1.2-34.2-2.83-50.88-5.85-4.83-.88-46.11-8.74-33.35-21.25,3.62-3.54,11.11-5.78,16.37-7.4a285.91,285.91,0,0,1,30.45-7c31.61-5.92,63.16-9.55,96-12.93,41.78-4.29,83.2-7.48,126.09-10.19q17.15-1.08,34.28-2,8.78-.48,17.56-.93l8.56-.44,4-.19,3.37-.16q34.74-1.65,69.51-2.75,17.36-.56,34.71-1,8.3-.19,16.6-.35,4.11-.09,8.23-.15l3.85-.07c1.73,0-1.85,0-.11,0l2.87,0q31.74-.45,63.5-.28c5.05,0,10.11.08,15.17.15l3.4,0c3.21,0-.69,0,1.24,0l7.5.14q14,.27,27.91.76,6.38.24,12.76.52l2.92.13c2.42.11-1.72-.09-.16,0l1.43.07,6.36.34q11.37.65,22.74,1.54l2.46.21,1.22.1c2,.18-1.48-.13-.18,0,1.77.16,3.53.32,5.29.5q4.84.48,9.69,1,4.33.53,8.66,1.13c.62.08,2.18.32.64.09l2.1.32,4,.67c8.45,1.48,14.54,2.43,22,6,3.26,1.53,7.5,3.89,6.44,8.29-1.25,5.15-8.45,7.71-12.88,9.43-10,3.89-19.83,5.87-30.76,7.91-15.52,2.9-29.19,4.67-45.36,6.49q-13.66,1.54-27.37,2.77L602,223l-7.68.64q-7.65.62-15.31,1.17-15.72,1.16-31.45,2.06-8.25.48-16.49.91c-2.54.14-5.08.26-7.63.39l-2.1.1-4.82.23q-33.83,1.58-67.66,2.43-17.23.45-34.46.73l-3.91.07c2.45,0-1.18,0-1.89,0l-8.75.12q-8.43.1-16.86.16-32,.24-63.89-.13l-6.93-.09c-2.1,0,.07,0,.42,0l-1.71,0-4.23-.07q-7.23-.13-14.46-.31-13.35-.31-26.68-.82-6.24-.23-12.48-.52l-1.38-.07c-1.4-.06,2,.11.64,0l-3-.16c-2-.1-3.93-.2-5.89-.32-6.74-.38-13.47-.82-20.19-1.37l-2.41-.2c-2.16-.18,1.8.17-.33,0l-4.47-.43c-2.65-.27-5.3-.56-7.94-.89l-3.26-.43c-.32,0-2.31-.33-1.05-.14s-.65-.1-1-.15c-1.89-.32-3.79-.64-5.67-1s-8.91-1.15-8.56-4.47c.27-2.48,4.29-3.77,6.33-4.53a83.05,83.05,0,0,1,15.29-3.67c6.75-1.17,14.65-2.12,22.73-2.94,5.46-.56,7.48-.73,12.29-1.12s9.9-.77,14.86-1.1q8.08-.53,16.18-1,4.05-.23,8.11-.42h.2l1.94-.09,4.87-.22q17.1-.76,34.21-1.26t34-.84l8.11-.15,3.77-.06,2.34,0c2.22,0-1.16,0,.25,0q7.86-.12,15.71-.21,24.81-.28,49.61-.3c6.32,0,12.63,0,19,0,1.07,0,11.25.18,11.25-1.29S458.63,200,458.22,200c-24.61-.16-49.23,0-73.84.32-46.89.6-93.85,1.59-140.64,4.9-18.38,1.3-36.89,2.77-55,6.1a84.82,84.82,0,0,0-16.38,4.24c-1.93.78-6.28,2.52-6.36,5.13-.11,3.77,9.07,5,11.38,5.49,10.69,2.28,21.7,3.2,32.57,4.13,35.41,3,71,3.72,106.55,4.19,45.46.6,90.93.17,136.37-1,45.87-1.17,91.74-3.1,137.51-6.43,36.37-2.64,73-5.73,108.88-12.38,11.2-2.08,22.6-4.42,33.27-8.51,4.59-1.75,12.5-4.67,14-10.09,3-11-25-14.55-30.83-15.58-29.94-5.34-60.68-6.7-91-7.84-41.92-1.58-83.9-1.64-125.84-1.06q-71.57,1-143,4.4c-47.1,2.22-94.18,5.08-141.19,8.89-39.62,3.21-79.23,6.93-118.62,12.27C70,200.68,43.36,204.13,18.3,212c-5.49,1.73-12.44,3.69-16.54,8s-.08,9.49,4,12.2c9.68,6.36,22.74,8.38,33.9,10.35,18.91,3.34,38.1,5.11,57.23,6.51,46.28,3.38,92.77,4.1,139.15,4.15q53.55.06,107.1-1.41c5.37-.14,10.74-.29,16.12-.48,1.26,0,8.54,0,7.85-1.59s-12.6-.94-13.83-.9Z"/></g></g></svg>